<svg xmlns="http://www.w3.org/2000/svg" width="33" height="27.715" viewBox="0 0 33 27.715">
    <path id="Path_3"  d="M89.562,176.457H83.373V175.6a.93.93,0,0,0-.93-.93h-16.9a.93.93,0,0,0-.93.93v.854H58.422a.93.93,0,0,0-.93.93v4.21a4.309,4.309,0,0,0,4.309,4.309h3.048a9.4,9.4,0,0,0,8.213,7.231v4.185h-2.49a2.611,2.611,0,0,0-2.608,2.608v1.529a.93.93,0,0,0,.93.93h10.2a.93.93,0,0,0,.93-.93V199.93a2.611,2.611,0,0,0-2.608-2.608h-2.49v-4.185a9.4,9.4,0,0,0,8.213-7.231h3.048a4.314,4.314,0,0,0,4.309-4.309v-4.21A.93.93,0,0,0,89.562,176.457ZM78.16,199.93v.6H69.824v-.6a.75.75,0,0,1,.749-.749h6.839A.749.749,0,0,1,78.16,199.93ZM64.613,184.047H61.8a2.45,2.45,0,0,1-2.45-2.45v-3.28h5.261v5.73Zm16.9-.245a7.521,7.521,0,1,1-15.043,0v-7.27H81.513Zm1.858-5.486h5.262v3.28a2.453,2.453,0,0,1-2.45,2.45H83.371Z" transform="translate(-57.492 -174.673)" fill="#fff"/>
</svg>
