<svg xmlns="http://www.w3.org/2000/svg" width="27" height="27" viewBox="0 0 27 27">
    <path id="trophy" d="M29.25,7.875H27V6.75A2.252,2.252,0,0,0,24.75,4.5H11.25A2.252,2.252,0,0,0,9,6.75V7.875H6.75a2.252,2.252,0,0,0-2.25,2.25V13.5A4.506,4.506,0,0,0,9,18h.362a9.19,9.19,0,0,0,7.513,6.676V29.25H11.25V31.5h13.5V29.25H19.125V24.672A8.962,8.962,0,0,0,26.707,18H27a4.506,4.506,0,0,0,4.5-4.5V10.125a2.252,2.252,0,0,0-2.25-2.25ZM9,15.75A2.252,2.252,0,0,1,6.75,13.5V10.125H9Zm15.75,0A6.75,6.75,0,0,1,17.791,22.5,6.975,6.975,0,0,1,11.25,15.42V6.75h13.5Zm4.5-2.25A2.252,2.252,0,0,1,27,15.75V10.125h2.25Z" transform="translate(-4.5 -4.5)" fill="#fff"/>
</svg>
