<svg xmlns="http://www.w3.org/2000/svg" width="26.05" height="32.245" viewBox="0 0 26.05 32.245">
    <g id="_5378839_card_club_club_card_gambling_games_icon" transform="translate(-164.979 -147.62)">
        <path id="Path_7"  d="M181.206,155.746v-.106a6.323,6.323,0,1,0-12.64,0v.106a6.447,6.447,0,0,0-5.173,5.876,6.53,6.53,0,0,0,4.162,6.676,6.214,6.214,0,0,0,7.328-2.418,6.214,6.214,0,0,0,7.328,2.418,6.53,6.53,0,0,0,4.162-6.676,6.447,6.447,0,0,0-5.173-5.876Z" transform="translate(3.121 0)" fill="none" stroke="#fff" stroke-linejoin="round" stroke-width="3"/>
        <path id="Path_8"  d="M209.28,327.812,217,320.87l7.718,6.942Z" transform="translate(-38.995 -149.447)" fill="none" stroke="#fff" stroke-linecap="round" stroke-linejoin="round" stroke-width="3"/>
    </g>
</svg>
