<svg xmlns="http://www.w3.org/2000/svg" width="32.25" height="28.667" viewBox="0 0 32.25 28.667">
    <path id="Icon_awesome-trophy"  d="M30.906,3.583H25.083V1.344A1.341,1.341,0,0,0,23.74,0H8.51A1.341,1.341,0,0,0,7.167,1.344v2.24H1.344A1.341,1.341,0,0,0,0,4.927V8.063c0,2,1.26,4.054,3.466,5.638a13.117,13.117,0,0,0,6.159,2.335,12.385,12.385,0,0,0,3.813,4.121v4.031H10.75c-1.976,0-3.583,1.159-3.583,3.135v.672a.674.674,0,0,0,.672.672H24.411a.674.674,0,0,0,.672-.672v-.672c0-1.976-1.607-3.135-3.583-3.135H18.813V20.156a12.385,12.385,0,0,0,3.813-4.121A13.072,13.072,0,0,0,28.784,13.7c2.2-1.585,3.466-3.639,3.466-5.638V4.927A1.341,1.341,0,0,0,30.906,3.583ZM5.56,10.795A4.119,4.119,0,0,1,3.583,8.063v-.9H7.178a20.109,20.109,0,0,0,.717,4.826,9.023,9.023,0,0,1-2.335-1.2ZM28.667,8.063c0,.9-.991,2.021-1.976,2.732a9.058,9.058,0,0,1-2.34,1.2,20.11,20.11,0,0,0,.717-4.826h3.6Z" fill="#707070"/>
</svg>
