<svg xmlns="http://www.w3.org/2000/svg" width="38.596" height="43.18" viewBox="0 0 38.596 43.18">
    <g id="champions-cup-svgrepo-com" transform="translate(-25.89)">
        <path id="Path_3"  d="M89.562,176.457H83.373V175.6a.93.93,0,0,0-.93-.93h-16.9a.93.93,0,0,0-.93.93v.854H58.422a.93.93,0,0,0-.93.93v4.21a4.309,4.309,0,0,0,4.309,4.309h3.048a9.4,9.4,0,0,0,8.213,7.231v4.185h-2.49a2.611,2.611,0,0,0-2.608,2.608v1.529a.93.93,0,0,0,.93.93h10.2a.93.93,0,0,0,.93-.93V199.93a2.611,2.611,0,0,0-2.608-2.608h-2.49v-4.185a9.4,9.4,0,0,0,8.213-7.231h3.048a4.314,4.314,0,0,0,4.309-4.309v-4.21A.93.93,0,0,0,89.562,176.457ZM78.16,199.93v.6H69.824v-.6a.75.75,0,0,1,.749-.749h6.839A.749.749,0,0,1,78.16,199.93ZM64.613,184.047H61.8a2.45,2.45,0,0,1-2.45-2.45v-3.28h5.261v5.73Zm16.9-.245a7.521,7.521,0,1,1-15.043,0v-7.27H81.513Zm1.858-5.486h5.262v3.28a2.453,2.453,0,0,1-2.45,2.45H83.371Z" transform="translate(-28.804 -159.208)" fill="#707070"/>
        <path id="Path_4"  d="M168.164,8.562l-.7,3.681a.93.93,0,0,0,1.36.988l3.285-1.8,3.285,1.8a.93.93,0,0,0,1.36-.988l-.7-3.681,2.728-2.568a.93.93,0,0,0-.52-1.6l-3.717-.474-1.6-3.388a.93.93,0,0,0-1.681,0l-1.6,3.388-3.716.474a.93.93,0,0,0-.52,1.6ZM170.413,5.7a.929.929,0,0,0,.723-.525l.976-2.068.976,2.068a.93.93,0,0,0,.723.525l2.269.289-1.665,1.567a.93.93,0,0,0-.276.85l.426,2.247-2.005-1.1a.929.929,0,0,0-.894,0l-2.005,1.1.426-2.247a.93.93,0,0,0-.276-.85L168.145,5.99Z" transform="translate(-126.925)" fill="#707070"/>
        <path id="Path_5"  d="M348.816,53.581a.93.93,0,0,0-.766-.635l-2.68-.342-1.153-2.443a.93.93,0,0,0-1.681,0L341.382,52.6l-2.68.342a.93.93,0,0,0-.52,1.6L340.15,56.4l-.5,2.654a.93.93,0,0,0,1.36.988l2.369-1.3,2.369,1.3a.93.93,0,0,0,1.36-.988l-.5-2.654,1.967-1.852A.93.93,0,0,0,348.816,53.581Zm-3.859,1.811a.93.93,0,0,0-.276.85l.231,1.22-1.089-.6a.929.929,0,0,0-.894,0l-1.089.6.231-1.22a.93.93,0,0,0-.276-.85l-.9-.851,1.232-.157a.929.929,0,0,0,.723-.525l.53-1.123.53,1.123a.93.93,0,0,0,.723.525l1.232.157Z" transform="translate(-284.376 -45.234)" fill="#707070" opacity="0.866"/>
        <path id="Path_6"  d="M31.376,58.741l2.369,1.3a.93.93,0,0,0,1.36-.988L34.6,56.4l1.967-1.852a.93.93,0,0,0-.52-1.6L33.37,52.6l-1.153-2.443a.93.93,0,0,0-1.681,0L29.382,52.6l-2.68.342a.93.93,0,0,0-.52,1.6L28.15,56.4l-.5,2.654a.93.93,0,0,0,1.36.988Zm-1.253-4.357a.929.929,0,0,0,.723-.525l.53-1.123.53,1.123a.93.93,0,0,0,.723.525l1.232.157-.9.851a.93.93,0,0,0-.276.85l.231,1.22-1.089-.6a.929.929,0,0,0-.894,0l-1.089.6.231-1.22a.93.93,0,0,0-.276-.85l-.9-.851Z" transform="translate(0 -45.234)" fill="#707070" opacity="0.876"/>
    </g>
</svg>
