<svg id="Icon_feather-settings" data-name="Icon feather-settings" xmlns="http://www.w3.org/2000/svg" width="32.038" height="32.038" viewBox="0 0 32.038 32.038">
    <path id="Path_1" d="M21.42,17.46a3.96,3.96,0,1,1-3.96-3.96A3.96,3.96,0,0,1,21.42,17.46Z" transform="translate(-1.441 -1.441)" fill="none" stroke="#fff" stroke-linecap="round" stroke-linejoin="round" stroke-width="3"/>
    <path id="Path_2" d="M25.787,19.979a2.178,2.178,0,0,0,.436,2.4l.079.079A2.641,2.641,0,1,1,22.566,26.2l-.079-.079a2.2,2.2,0,0,0-3.722,1.558V27.9a2.64,2.64,0,0,1-5.28,0V27.78a2.178,2.178,0,0,0-1.426-1.993,2.178,2.178,0,0,0-2.4.436l-.079.079a2.641,2.641,0,1,1-3.735-3.735l.079-.079a2.2,2.2,0,0,0-1.558-3.722H4.14a2.64,2.64,0,1,1,0-5.28h.119a2.178,2.178,0,0,0,1.993-1.426,2.178,2.178,0,0,0-.436-2.4l-.079-.079A2.641,2.641,0,1,1,9.472,5.843l.079.079a2.178,2.178,0,0,0,2.4.436h.106a2.178,2.178,0,0,0,1.32-1.993V4.14a2.64,2.64,0,1,1,5.28,0v.119a2.2,2.2,0,0,0,3.722,1.558l.079-.079A2.641,2.641,0,1,1,26.2,9.472l-.079.079a2.178,2.178,0,0,0-.436,2.4v.106a2.178,2.178,0,0,0,1.993,1.32H27.9a2.64,2.64,0,0,1,0,5.28H27.78a2.178,2.178,0,0,0-1.993,1.32Z" transform="translate(0 0)" fill="none" stroke="#fff" stroke-linecap="round" stroke-linejoin="round" stroke-width="3"/>
</svg>
